<svg version="1.1" id="Layer_1" xmlns="http://www.w3.org/2000/svg" xmlns:xlink="http://www.w3.org/1999/xlink" x="0px" y="0px"
	 width="100%" viewBox="0 0 793 230" enable-background="new 0 0 793 230" xml:space="preserve">
<path fill="#100720" opacity="1.000000" stroke="none" 
	d="
M517.000000,231.000000 
	C344.708618,231.000000 172.917252,231.000000 1.062943,231.000000 
	C1.062943,154.394058 1.062943,77.788055 1.062943,1.091026 
	C265.333313,1.091026 529.666626,1.091026 793.966003,1.091026 
	C793.966003,77.749458 793.966003,154.374741 793.966003,231.000000 
	C701.788025,231.000000 609.643982,231.000000 517.000000,231.000000 
M108.063560,89.127945 
	C112.552292,79.057533 120.984772,75.235947 131.304214,75.101730 
	C148.448746,74.878754 165.598221,75.050255 182.745499,75.010002 
	C185.569916,75.003372 188.424500,74.983932 191.212631,74.594444 
	C204.151215,72.786964 214.819260,60.246666 213.180008,48.250256 
	C211.474350,48.250256 209.684433,48.250256 207.894516,48.250252 
	C183.921478,48.250229 159.948349,48.217304 135.975510,48.285221 
	C132.327927,48.295555 128.650253,48.553547 125.039787,49.069775 
	C95.540077,53.287670 80.864136,87.098679 98.203445,111.303085 
	C101.414406,115.785347 104.841827,120.714691 111.617218,122.299446 
	C115.304512,126.943840 120.750938,127.688469 125.951416,127.851784 
	C140.403152,128.305603 154.877762,128.520126 169.332184,128.244553 
	C180.831192,128.025299 190.178711,131.548508 196.598267,141.808884 
	C191.488297,150.818253 183.376160,154.572021 173.403595,154.810425 
	C166.418411,154.977432 159.426193,154.834305 152.437241,154.862595 
	C139.958740,154.913101 127.459862,154.564819 115.007378,155.166672 
	C101.189751,155.834488 89.877403,168.658554 91.458366,181.122253 
	C92.191895,181.269211 92.984215,181.566162 93.776741,181.566727 
	C120.900871,181.585922 148.031403,181.935867 175.147018,181.452347 
	C194.872101,181.100616 210.605957,166.476654 213.482666,147.163849 
	C216.207870,128.868164 205.291565,110.621269 187.471069,103.930016 
	C182.406921,103.194176 177.357208,101.973564 172.275650,101.822311 
	C161.331360,101.496567 150.350540,101.302971 139.422089,101.830490 
	C127.016037,102.429337 116.023567,100.246841 108.063560,89.127945 
M33.304203,48.269623 
	C31.888432,49.728786 30.014969,50.952194 29.124083,52.681728 
	C8.862279,92.017250 8.378235,131.777496 26.285385,172.126587 
	C29.472401,179.307693 33.350571,182.745148 41.569736,181.763733 
	C48.633728,180.920227 55.878319,181.603455 63.042923,181.577271 
	C64.631798,181.571472 66.220139,181.421661 68.211143,181.317001 
	C36.111984,136.874512 36.081383,92.929512 68.438446,48.257172 
	C56.644089,48.257172 45.402718,48.257172 33.304203,48.269623 
M284.679321,155.200974 
	C295.809998,119.421371 292.920929,84.881279 275.718353,51.522636 
	C274.023895,48.236832 271.992310,47.068726 268.340698,47.168903 
	C259.185638,47.420055 250.019028,47.236614 240.857193,47.268517 
	C239.468613,47.273354 238.080795,47.497654 236.599701,47.628662 
	C268.480804,92.034264 268.697205,135.971695 236.293549,180.554001 
	C248.617142,180.554001 260.055359,180.645859 271.487183,180.417084 
	C272.678528,180.393250 274.313568,178.694183 274.922607,177.389511 
	C278.228546,170.307861 281.276764,163.105927 284.679321,155.200974 
M505.840942,86.637123 
	C509.411102,94.704468 512.857910,102.830658 516.654846,110.789825 
	C517.420166,112.394112 519.414001,114.163223 521.026550,114.363091 
	C522.210938,114.509888 524.199890,112.471382 524.957214,110.967209 
	C527.424500,106.066833 529.482239,100.960800 531.714783,95.941521 
	C533.282715,92.416344 534.878662,88.903633 536.462097,85.385345 
	C536.968140,85.491447 537.474121,85.597549 537.980103,85.703651 
	C537.980103,95.177246 537.980103,104.650848 537.980103,114.266937 
	C543.334045,114.266937 547.893005,114.266937 552.585876,114.266937 
	C552.585876,93.333946 552.585876,72.780502 552.585876,52.279617 
	C538.406128,49.945206 537.735352,50.285042 531.883850,62.576527 
	C530.381287,65.732803 528.889465,68.894188 527.382202,72.048218 
	C525.409241,76.176704 523.425964,80.300232 520.977112,85.405769 
	C519.634216,82.916313 518.818542,81.543533 518.132263,80.108887 
	C514.181091,71.849426 510.312927,63.549644 506.277985,55.331600 
	C505.609650,53.970352 504.333191,52.016678 503.208923,51.925495 
	C498.490204,51.542805 493.722473,51.763905 489.204865,51.763905 
	C489.204865,73.152512 489.204865,93.703934 489.204865,114.198990 
	C494.178864,114.198990 498.733978,114.198990 503.626617,114.198990 
	C503.626617,105.452080 503.566437,97.146248 503.706909,88.843803 
	C503.723480,87.865791 504.841980,86.906433 505.840942,86.637123 
M773.259644,92.500443 
	C773.259644,79.066772 773.259644,65.633110 773.259644,51.721859 
	C769.662292,51.721859 766.661011,52.003578 763.734131,51.657135 
	C759.113892,51.110264 756.596985,52.780746 754.718201,57.181606 
	C750.758179,66.457581 746.141113,75.453079 741.376587,85.437790 
	C740.139160,83.149818 739.317505,81.773186 738.628540,80.333122 
	C734.601013,71.915352 730.664368,63.453190 726.535461,55.085758 
	C725.886169,53.769958 724.481812,52.009617 723.308044,51.914284 
	C718.753296,51.544350 714.150635,51.763725 709.549500,51.763725 
	C709.549500,73.082527 709.549500,93.624512 709.549500,114.247025 
	C714.528992,114.247025 719.096619,114.247025 724.215942,114.247025 
	C724.215942,104.335167 724.215942,94.800056 724.215942,85.264954 
	C724.622864,85.168442 725.029724,85.071930 725.436646,84.975418 
	C728.710876,92.324532 731.759644,99.787140 735.372498,106.965805 
	C736.778076,109.758507 736.226013,114.563995 741.208984,114.589951 
	C746.219055,114.616066 745.674805,109.809135 747.068359,107.011749 
	C750.656189,99.809883 753.705811,92.339912 756.970398,84.977058 
	C757.447998,85.069557 757.925537,85.162064 758.403076,85.254570 
	C758.403076,94.890991 758.403076,104.527412 758.403076,114.267349 
	C763.738403,114.267349 768.292847,114.267349 773.259644,114.267349 
	C773.259644,107.102783 773.259644,100.301537 773.259644,92.500443 
M620.946777,52.446495 
	C616.528015,51.870930 612.114319,50.851227 607.689636,50.801624 
	C593.425903,50.641716 582.201538,58.647781 578.023621,71.519005 
	C573.421936,85.696060 577.575439,101.757843 588.436096,109.444855 
	C599.903687,117.561371 612.503174,118.075912 624.859436,112.050262 
	C637.348877,105.959686 641.787598,94.726814 641.206543,81.408188 
	C640.619202,67.946289 634.540100,57.960575 620.946777,52.446495 
M462.940582,96.350388 
	C463.649078,90.785080 465.125305,85.190193 464.912262,79.660393 
	C464.410522,66.636345 456.175354,56.175262 444.395325,52.281517 
	C430.986633,47.849449 415.700409,51.260658 407.749573,61.134972 
	C398.631989,72.458336 397.773865,85.328011 403.438080,98.266502 
	C408.619629,110.102394 418.622314,115.343971 431.389404,115.655952 
	C445.733734,116.006470 456.553802,110.532677 462.940582,96.350388 
M368.645660,113.265915 
	C370.057953,112.390167 371.564148,111.634964 372.867615,110.619522 
	C383.072998,102.669357 383.107819,89.931381 372.695374,82.304436 
	C369.392792,79.885330 365.426178,78.337639 361.676056,76.577309 
	C359.273254,75.449409 356.452148,75.045723 354.303101,73.598076 
	C352.650391,72.484802 351.753265,70.249863 350.520111,68.513725 
	C352.450928,67.491821 354.407501,65.614311 356.305786,65.671501 
	C358.519379,65.738174 360.813690,67.292664 362.819458,68.592743 
	C364.110138,69.429337 364.944183,70.970375 366.163971,72.409248 
	C370.554108,69.772987 374.596466,67.345558 378.597717,64.942810 
	C372.840759,54.612076 363.528320,49.657349 352.962006,50.784054 
	C344.898895,51.643837 337.161346,58.417015 335.613220,65.970627 
	C333.946625,74.102333 337.670776,81.184708 346.151276,85.417320 
	C349.563507,87.120369 353.248077,88.270981 356.771942,89.759941 
	C358.755493,90.598076 360.864685,91.343414 362.564331,92.605751 
	C365.943542,95.115517 365.389587,99.032280 361.416412,100.235924 
	C356.949615,101.589111 351.724518,101.925415 348.919312,97.915955 
	C345.155884,92.536842 342.026459,93.976791 338.079529,96.965622 
	C336.390747,98.244484 334.479889,99.230019 332.730469,100.311401 
	C338.373169,113.497513 353.157684,118.927719 368.645660,113.265915 
M666.966187,51.863232 
	C666.512024,53.485924 665.673645,55.106197 665.663391,56.731689 
	C665.563599,72.549133 665.602356,88.367462 665.601685,104.185539 
	C665.601562,107.469612 665.601685,110.753685 665.601685,114.297256 
	C670.740234,114.297256 675.300354,114.297256 680.037720,114.297256 
	C680.037720,93.410233 680.037720,72.854057 680.037720,51.751709 
	C675.794861,51.751709 671.842590,51.751709 666.966187,51.863232 
M425.496490,180.294754 
	C430.312378,178.812256 433.092377,175.522461 433.522736,170.556381 
	C433.971588,165.376480 430.380280,162.858337 426.405914,160.738205 
	C423.619324,159.251694 420.679291,157.975067 418.134064,156.149719 
	C417.014496,155.346802 415.897461,153.168411 416.233856,152.053406 
	C416.657379,150.649658 418.400330,149.071701 419.873840,148.670715 
	C423.447540,147.698212 426.276855,148.698181 427.713257,152.736862 
	C428.213287,154.142654 430.183380,155.025604 431.482025,156.147324 
	C432.033783,154.316391 433.334564,152.332123 432.997070,150.683228 
	C431.978302,145.706268 427.388458,142.743759 421.731445,142.738388 
	C415.929565,142.732880 411.453491,145.749008 410.242767,150.479797 
	C409.110657,154.903427 411.100952,158.892899 416.230072,161.935028 
	C419.229309,163.713898 422.542694,164.993011 425.417542,166.936539 
	C426.519623,167.681564 427.559967,169.851608 427.254242,171.009460 
	C426.868011,172.472260 425.254272,174.348816 423.858795,174.662537 
	C420.330353,175.455765 416.867645,175.356110 415.763916,170.498199 
	C415.465302,169.183960 413.555023,168.235886 412.384491,167.119736 
	C411.638824,168.722122 410.117279,170.409973 410.282684,171.912018 
	C410.974121,178.190033 416.798248,181.489105 425.496490,180.294754 
M651.503357,153.193710 
	C649.846436,145.394653 645.379333,142.025787 637.793701,142.854645 
	C631.302368,143.563919 627.968201,147.744431 627.868652,155.422287 
	C627.810486,159.903442 627.776123,164.388016 627.882324,168.867477 
	C628.059570,176.341156 632.495605,180.839111 639.586243,180.896408 
	C646.510498,180.952347 651.341919,176.222641 651.523804,169.005142 
	C651.649231,164.028442 651.542664,159.045898 651.503357,153.193710 
M732.761230,180.006119 
	C738.145203,181.760269 743.116577,181.133362 746.854187,176.651825 
	C750.280334,172.543884 750.483093,167.572327 748.048157,163.054276 
	C746.594055,160.356140 746.181091,158.366989 747.073486,155.341492 
	C748.890991,149.180405 745.392334,143.856918 739.639648,142.917374 
	C733.422668,141.901993 728.267273,145.146454 727.978943,150.723480 
	C727.890808,152.428619 729.439819,154.218399 730.239136,155.969391 
	C731.346619,154.637131 732.354614,153.202728 733.588379,152.000046 
	C734.952454,150.670380 736.465820,148.727676 738.023254,148.619278 
	C739.150879,148.540848 741.505859,151.090927 741.419495,152.337585 
	C741.308899,153.933640 739.420288,155.522308 738.063660,156.880310 
	C736.932068,158.013092 735.463196,158.808914 734.143677,159.753937 
	C735.630066,160.766327 737.151367,161.731674 738.593445,162.803696 
	C740.185120,163.986984 742.470764,164.965073 743.103638,166.566330 
	C744.683899,170.564285 742.728943,174.213882 739.333130,174.902695 
	C734.605103,175.861740 732.653320,174.243439 731.497192,169.131104 
	C731.169922,167.683868 729.611023,166.515152 728.616943,165.218704 
	C727.674438,166.721832 726.019592,168.181076 725.923767,169.736328 
	C725.643494,174.287415 727.911011,177.674683 732.761230,180.006119 
M584.769592,165.288666 
	C582.799988,168.467270 580.364746,171.459396 578.995728,174.878479 
	C577.704285,178.103531 579.194824,180.270004 583.176392,180.145203 
	C588.163147,179.988892 593.169434,180.290802 598.143433,179.994736 
	C599.602112,179.907898 600.979736,178.460663 602.394531,177.636917 
	C600.961609,176.649857 599.598816,174.963425 598.082153,174.811386 
	C594.082886,174.410538 590.016724,174.675751 585.977234,174.675751 
	C585.757446,174.131226 585.537659,173.586700 585.317810,173.042175 
	C587.294250,171.237244 589.205139,169.353409 591.263000,167.646591 
	C594.070618,165.317978 597.325439,163.436111 599.780212,160.796951 
	C603.152771,157.171143 603.515137,152.720596 601.148132,148.285156 
	C598.818726,143.919983 594.021912,141.984161 588.224487,142.954758 
	C583.465271,143.751526 580.293335,146.564438 579.352661,151.219849 
	C579.055969,152.688309 580.475220,154.503510 581.109192,156.160004 
	C582.333496,155.159317 584.296997,154.362167 584.639404,153.118668 
	C585.556885,149.786652 587.683594,148.063400 590.725464,148.452591 
	C592.691895,148.704178 595.945923,150.480301 595.995911,151.682449 
	C596.096191,154.095947 594.946960,157.072021 593.305359,158.920685 
	C591.152527,161.345078 588.025757,162.904648 584.769592,165.288666 
M680.343201,167.932724 
	C679.373352,169.660751 678.110168,171.290100 677.489380,173.135559 
	C675.724609,178.380936 677.046814,180.072449 682.634827,180.107819 
	C686.960449,180.135193 691.308716,180.367111 695.601318,179.989487 
	C697.324158,179.837921 698.925049,178.299179 700.581421,177.391830 
	C698.909851,176.483429 697.301880,174.975632 695.553528,174.789978 
	C691.778381,174.389053 687.931152,174.666641 684.113342,174.666641 
	C683.944153,174.055222 683.774902,173.443787 683.605652,172.832367 
	C685.784424,170.938263 687.930298,169.004547 690.150452,167.160248 
	C692.826965,164.936798 695.922729,163.104080 698.194031,160.533981 
	C701.482727,156.812485 701.669312,152.352066 699.189209,147.993423 
	C696.760254,143.724731 691.820190,141.860687 686.111023,143.003494 
	C681.399597,143.946579 678.318359,146.845444 677.489990,151.543274 
	C677.244934,152.933105 678.536194,154.593842 679.123474,156.130432 
	C680.410461,155.217255 682.551392,154.507248 682.825928,153.353226 
	C683.685913,149.738022 685.907837,148.043961 689.203613,148.436722 
	C691.054810,148.657349 694.253784,150.488525 694.189697,151.409149 
	C694.005798,154.049927 693.090393,157.187805 691.323364,159.048492 
	C688.274536,162.258972 684.365417,164.652527 680.343201,167.932724 
M383.060944,145.685944 
	C382.283264,144.902664 381.529999,143.470337 380.724060,143.440079 
	C374.920654,143.222107 369.089600,143.051697 363.310303,143.465988 
	C362.166107,143.548004 360.349518,146.196899 360.304047,147.706116 
	C360.023590,157.009003 360.167603,166.324493 360.157471,175.635803 
	C360.154480,178.392487 361.253448,180.106094 364.243927,180.105865 
	C369.398315,180.105484 374.562622,180.271912 379.699554,179.971390 
	C380.855377,179.903763 381.915588,178.202469 383.019836,177.253235 
	C381.965851,176.405258 380.984711,174.965240 379.843628,174.824783 
	C376.893585,174.461700 373.842560,174.395493 370.887634,174.719360 
	C366.619385,175.187225 366.011139,173.121719 365.955566,169.478973 
	C365.897034,165.640671 366.934235,164.079666 371.000366,164.306320 
	C373.449829,164.442856 377.324615,165.885193 377.539215,161.517868 
	C377.576202,160.765366 373.437988,159.713623 371.168304,158.988144 
	C370.259430,158.697662 369.115387,159.134827 368.212646,158.835648 
	C367.421478,158.573456 366.448456,157.874634 366.191254,157.144730 
	C364.343353,151.901001 366.384308,149.028961 371.816528,149.015045 
	C374.144348,149.009079 376.532379,149.324966 378.779144,148.896820 
	C380.309875,148.605148 381.643097,147.276764 383.060944,145.685944 
M468.987610,167.478058 
	C468.988464,170.300156 468.625000,173.188782 469.123810,175.919922 
	C469.433502,177.615387 471.050446,179.072083 472.080597,180.635971 
	C473.002533,179.121307 474.656097,177.637070 474.720612,176.086731 
	C475.010284,169.126541 474.957428,162.145172 474.805847,155.176285 
	C474.722382,151.339371 474.711456,148.134094 480.133636,148.824738 
	C481.046295,148.940979 482.233704,146.900208 483.294128,145.856049 
	C482.252747,144.959793 481.243408,143.336700 480.164551,143.289108 
	C474.534363,143.040756 468.879272,143.051300 463.251862,143.341217 
	C462.286438,143.390961 460.936371,145.119843 460.681305,146.275482 
	C460.535461,146.936279 462.096497,148.445114 463.146057,148.789917 
	C464.791656,149.330536 466.654633,149.209412 468.987610,149.419067 
	C468.987610,155.288452 468.987610,160.887222 468.987610,167.478058 
M510.496246,174.832520 
	C510.559174,176.587128 510.474976,178.372360 510.827881,180.066574 
	C510.887604,180.353424 513.356567,180.714706 513.787231,180.226105 
	C514.640320,179.258377 515.610291,177.150238 515.156128,176.543793 
	C514.324036,175.432663 512.493652,175.069107 510.496246,174.832520 
z"/>
<path fill="#D7CAF2" opacity="1.000000" stroke="none" 
	d="
M33.732777,48.263397 
	C45.402718,48.257172 56.644089,48.257172 68.438446,48.257172 
	C36.081383,92.929512 36.111984,136.874512 68.211143,181.317001 
	C66.220139,181.421661 64.631798,181.571472 63.042923,181.577271 
	C55.878319,181.603455 48.633728,180.920227 41.569736,181.763733 
	C33.350571,182.745148 29.472401,179.307693 26.285385,172.126587 
	C8.378235,131.777496 8.862279,92.017250 29.124083,52.681728 
	C30.014969,50.952194 31.888432,49.728786 33.732777,48.263397 
z"/>
<path fill="#D6CAF1" opacity="1.000000" stroke="none" 
	d="
M284.546539,155.573196 
	C281.276764,163.105927 278.228546,170.307861 274.922607,177.389511 
	C274.313568,178.694183 272.678528,180.393250 271.487183,180.417084 
	C260.055359,180.645859 248.617142,180.554001 236.293549,180.554001 
	C268.697205,135.971695 268.480804,92.034264 236.599701,47.628662 
	C238.080795,47.497654 239.468613,47.273354 240.857193,47.268517 
	C250.019028,47.236614 259.185638,47.420055 268.340698,47.168903 
	C271.992310,47.068726 274.023895,48.236832 275.718353,51.522636 
	C292.920929,84.881279 295.809998,119.421371 284.546539,155.573196 
z"/>
<path fill="#D5C8F0" opacity="1.000000" stroke="none" 
	d="
M187.926529,104.446014 
	C205.291565,110.621269 216.207870,128.868164 213.482666,147.163849 
	C210.605957,166.476654 194.872101,181.100616 175.147018,181.452347 
	C148.031403,181.935867 120.900871,181.585922 93.776741,181.566727 
	C92.984215,181.566162 92.191895,181.269211 91.458366,181.122253 
	C89.877403,168.658554 101.189751,155.834488 115.007378,155.166672 
	C127.459862,154.564819 139.958740,154.913101 152.437241,154.862595 
	C159.426193,154.834305 166.418411,154.977432 173.403595,154.810425 
	C183.376160,154.572021 191.488297,150.818253 197.025116,141.299881 
	C203.085495,129.659775 200.572357,116.078819 191.406967,107.936081 
	C190.180954,106.846870 189.083511,105.612930 187.926529,104.446014 
z"/>
<path fill="#D6C9F1" opacity="1.000000" stroke="none" 
	d="
M111.039200,121.910507 
	C104.841827,120.714691 101.414406,115.785347 98.203445,111.303085 
	C80.864136,87.098679 95.540077,53.287670 125.039787,49.069775 
	C128.650253,48.553547 132.327927,48.295555 135.975510,48.285221 
	C159.948349,48.217304 183.921478,48.250229 207.894516,48.250252 
	C209.684433,48.250256 211.474350,48.250256 213.180008,48.250256 
	C214.819260,60.246666 204.151215,72.786964 191.212631,74.594444 
	C188.424500,74.983932 185.569916,75.003372 182.745499,75.010002 
	C165.598221,75.050255 148.448746,74.878754 131.304214,75.101730 
	C120.984772,75.235947 112.552292,79.057533 107.691895,89.632790 
	C106.248917,93.191872 104.671410,96.170830 104.203789,99.314857 
	C102.939049,107.818359 106.661797,115.007416 111.039200,121.910507 
z"/>
<path fill="#D3C6ED" opacity="1.000000" stroke="none" 
	d="
M505.645325,86.287773 
	C504.841980,86.906433 503.723480,87.865791 503.706909,88.843803 
	C503.566437,97.146248 503.626617,105.452080 503.626617,114.198990 
	C498.733978,114.198990 494.178864,114.198990 489.204865,114.198990 
	C489.204865,93.703934 489.204865,73.152512 489.204865,51.763905 
	C493.722473,51.763905 498.490204,51.542805 503.208923,51.925495 
	C504.333191,52.016678 505.609650,53.970352 506.277985,55.331600 
	C510.312927,63.549644 514.181091,71.849426 518.132263,80.108887 
	C518.818542,81.543533 519.634216,82.916313 520.977112,85.405769 
	C523.425964,80.300232 525.409241,76.176704 527.382202,72.048218 
	C528.889465,68.894188 530.381287,65.732803 531.883850,62.576527 
	C537.735352,50.285042 538.406128,49.945206 552.585876,52.279617 
	C552.585876,72.780502 552.585876,93.333946 552.585876,114.266937 
	C547.893005,114.266937 543.334045,114.266937 537.980103,114.266937 
	C537.980103,104.650848 537.980103,95.177246 537.980103,85.703651 
	C537.474121,85.597549 536.968140,85.491447 536.462097,85.385345 
	C534.878662,88.903633 533.282715,92.416344 531.714783,95.941521 
	C529.482239,100.960800 527.424500,106.066833 524.957214,110.967209 
	C524.199890,112.471382 522.210938,114.509888 521.026550,114.363091 
	C519.414001,114.163223 517.420166,112.394112 516.654846,110.789825 
	C512.857910,102.830658 509.411102,94.704468 505.645325,86.287773 
z"/>
<path fill="#D5C8EF" opacity="1.000000" stroke="none" 
	d="
M773.259644,93.000366 
	C773.259644,100.301537 773.259644,107.102783 773.259644,114.267349 
	C768.292847,114.267349 763.738403,114.267349 758.403076,114.267349 
	C758.403076,104.527412 758.403076,94.890991 758.403076,85.254570 
	C757.925537,85.162064 757.447998,85.069557 756.970398,84.977058 
	C753.705811,92.339912 750.656189,99.809883 747.068359,107.011749 
	C745.674805,109.809135 746.219055,114.616066 741.208984,114.589951 
	C736.226013,114.563995 736.778076,109.758507 735.372498,106.965805 
	C731.759644,99.787140 728.710876,92.324532 725.436646,84.975418 
	C725.029724,85.071930 724.622864,85.168442 724.215942,85.264954 
	C724.215942,94.800056 724.215942,104.335167 724.215942,114.247025 
	C719.096619,114.247025 714.528992,114.247025 709.549500,114.247025 
	C709.549500,93.624512 709.549500,73.082527 709.549500,51.763725 
	C714.150635,51.763725 718.753296,51.544350 723.308044,51.914284 
	C724.481812,52.009617 725.886169,53.769958 726.535461,55.085758 
	C730.664368,63.453190 734.601013,71.915352 738.628540,80.333122 
	C739.317505,81.773186 740.139160,83.149818 741.376587,85.437790 
	C746.141113,75.453079 750.758179,66.457581 754.718201,57.181606 
	C756.596985,52.780746 759.113892,51.110264 763.734131,51.657135 
	C766.661011,52.003578 769.662292,51.721859 773.259644,51.721859 
	C773.259644,65.633110 773.259644,79.066772 773.259644,93.000366 
z"/>
<path fill="#9F7CE4" opacity="1.000000" stroke="none" 
	d="
M111.328209,122.104980 
	C106.661797,115.007416 102.939049,107.818359 104.203789,99.314857 
	C104.671410,96.170830 106.248917,93.191872 107.655045,89.983475 
	C116.023567,100.246841 127.016037,102.429337 139.422089,101.830490 
	C150.350540,101.302971 161.331360,101.496567 172.275650,101.822311 
	C177.357208,101.973564 182.406921,103.194176 187.698792,104.188019 
	C189.083511,105.612930 190.180954,106.846870 191.406967,107.936081 
	C200.572357,116.078819 203.085495,129.659775 197.177277,140.958862 
	C190.178711,131.548508 180.831192,128.025299 169.332184,128.244553 
	C154.877762,128.520126 140.403152,128.305603 125.951416,127.851784 
	C120.750938,127.688469 115.304512,126.943840 111.328209,122.104980 
z"/>
<path fill="#D4C7EF" opacity="1.000000" stroke="none" 
	d="
M621.314453,52.583397 
	C634.540100,57.960575 640.619202,67.946289 641.206543,81.408188 
	C641.787598,94.726814 637.348877,105.959686 624.859436,112.050262 
	C612.503174,118.075912 599.903687,117.561371 588.436096,109.444855 
	C577.575439,101.757843 573.421936,85.696060 578.023621,71.519005 
	C582.201538,58.647781 593.425903,50.641716 607.689636,50.801624 
	C612.114319,50.851227 616.528015,51.870930 621.314453,52.583397 
M606.109375,65.581543 
	C605.130554,65.766808 604.119019,65.850449 603.178040,66.153183 
	C594.424866,68.969109 589.704773,77.632988 591.640442,87.263214 
	C593.459595,96.314026 601.034912,101.657417 610.863464,100.822388 
	C619.893982,100.055168 626.101562,93.142998 626.267578,83.669823 
	C626.471863,72.014427 619.224060,65.211639 606.109375,65.581543 
z"/>
<path fill="#D4C7EF" opacity="1.000000" stroke="none" 
	d="
M462.799683,96.711113 
	C456.553802,110.532677 445.733734,116.006470 431.389404,115.655952 
	C418.622314,115.343971 408.619629,110.102394 403.438080,98.266502 
	C397.773865,85.328011 398.631989,72.458336 407.749573,61.134972 
	C415.700409,51.260658 430.986633,47.849449 444.395325,52.281517 
	C456.175354,56.175262 464.410522,66.636345 464.912262,79.660393 
	C465.125305,85.190193 463.649078,90.785080 462.799683,96.711113 
M445.774384,70.781227 
	C444.621948,69.831322 443.558044,68.739586 442.302063,67.955544 
	C436.157684,64.119827 427.128479,64.602730 421.601135,68.975014 
	C415.794464,73.568245 413.548920,82.360733 416.260254,89.887566 
	C418.767853,96.848831 425.090454,101.038536 433.004944,100.920128 
	C439.701385,100.819946 445.082001,98.144585 448.096954,92.047829 
	C451.632202,84.898949 451.074158,77.871201 445.774384,70.781227 
z"/>
<path fill="#D3C7EE" opacity="1.000000" stroke="none" 
	d="
M368.302612,113.431091 
	C353.157684,118.927719 338.373169,113.497513 332.730469,100.311401 
	C334.479889,99.230019 336.390747,98.244484 338.079529,96.965622 
	C342.026459,93.976791 345.155884,92.536842 348.919312,97.915955 
	C351.724518,101.925415 356.949615,101.589111 361.416412,100.235924 
	C365.389587,99.032280 365.943542,95.115517 362.564331,92.605751 
	C360.864685,91.343414 358.755493,90.598076 356.771942,89.759941 
	C353.248077,88.270981 349.563507,87.120369 346.151276,85.417320 
	C337.670776,81.184708 333.946625,74.102333 335.613220,65.970627 
	C337.161346,58.417015 344.898895,51.643837 352.962006,50.784054 
	C363.528320,49.657349 372.840759,54.612076 378.597717,64.942810 
	C374.596466,67.345558 370.554108,69.772987 366.163971,72.409248 
	C364.944183,70.970375 364.110138,69.429337 362.819458,68.592743 
	C360.813690,67.292664 358.519379,65.738174 356.305786,65.671501 
	C354.407501,65.614311 352.450928,67.491821 350.520111,68.513718 
	C351.753265,70.249863 352.650391,72.484802 354.303101,73.598076 
	C356.452148,75.045723 359.273254,75.449409 361.676056,76.577309 
	C365.426178,78.337639 369.392792,79.885330 372.695374,82.304436 
	C383.107819,89.931381 383.072998,102.669357 372.867615,110.619522 
	C371.564148,111.634964 370.057953,112.390167 368.302612,113.431091 
z"/>
<path fill="#D7CAF1" opacity="1.000000" stroke="none" 
	d="
M667.428223,51.807472 
	C671.842590,51.751709 675.794861,51.751709 680.037720,51.751709 
	C680.037720,72.854057 680.037720,93.410233 680.037720,114.297256 
	C675.300354,114.297256 670.740234,114.297256 665.601685,114.297256 
	C665.601685,110.753685 665.601562,107.469612 665.601685,104.185539 
	C665.602356,88.367462 665.563599,72.549133 665.663391,56.731689 
	C665.673645,55.106197 666.512024,53.485924 667.428223,51.807472 
z"/>
<path fill="#C3B7DD" opacity="1.000000" stroke="none" 
	d="
M425.110535,180.401764 
	C416.798248,181.489105 410.974121,178.190033 410.282684,171.912018 
	C410.117279,170.409973 411.638824,168.722122 412.384491,167.119751 
	C413.555023,168.235886 415.465302,169.183960 415.763916,170.498199 
	C416.867645,175.356110 420.330353,175.455765 423.858795,174.662537 
	C425.254272,174.348816 426.868011,172.472260 427.254242,171.009460 
	C427.559967,169.851608 426.519623,167.681564 425.417542,166.936539 
	C422.542694,164.993011 419.229309,163.713898 416.230072,161.935028 
	C411.100952,158.892899 409.110657,154.903427 410.242767,150.479797 
	C411.453491,145.749008 415.929565,142.732880 421.731445,142.738388 
	C427.388458,142.743759 431.978302,145.706268 432.997070,150.683228 
	C433.334564,152.332123 432.033783,154.316391 431.482056,156.147339 
	C430.183380,155.025604 428.213287,154.142654 427.713257,152.736862 
	C426.276855,148.698181 423.447540,147.698212 419.873840,148.670715 
	C418.400330,149.071701 416.657379,150.649658 416.233856,152.053406 
	C415.897461,153.168411 417.014496,155.346802 418.134064,156.149719 
	C420.679291,157.975067 423.619324,159.251694 426.405914,160.738205 
	C430.380280,162.858337 433.971588,165.376480 433.522736,170.556381 
	C433.092377,175.522461 430.312378,178.812256 425.110535,180.401764 
z"/>
<path fill="#C7BAE1" opacity="1.000000" stroke="none" 
	d="
M651.521606,153.629837 
	C651.542664,159.045898 651.649231,164.028442 651.523804,169.005142 
	C651.341919,176.222641 646.510498,180.952347 639.586243,180.896408 
	C632.495605,180.839111 628.059570,176.341156 627.882324,168.867477 
	C627.776123,164.388016 627.810486,159.903442 627.868652,155.422287 
	C627.968201,147.744431 631.302368,143.563919 637.793701,142.854645 
	C645.379333,142.025787 649.846436,145.394653 651.521606,153.629837 
M641.840759,148.563538 
	C638.000671,147.789474 634.298218,148.217285 633.895264,152.814758 
	C633.374817,158.753815 633.505737,164.796844 633.985962,170.744232 
	C634.108093,172.256531 636.564514,174.667618 638.033875,174.732590 
	C640.318970,174.833649 644.617859,173.422256 644.692871,172.403610 
	C645.222961,165.209656 644.948730,157.950577 644.738342,150.717911 
	C644.719482,150.069290 643.334412,149.460434 641.840759,148.563538 
z"/>
<path fill="#C5B9DF" opacity="1.000000" stroke="none" 
	d="
M732.397949,179.871490 
	C727.911011,177.674683 725.643494,174.287415 725.923767,169.736328 
	C726.019592,168.181076 727.674438,166.721832 728.616943,165.218689 
	C729.611023,166.515152 731.169922,167.683868 731.497192,169.131104 
	C732.653320,174.243439 734.605103,175.861740 739.333130,174.902695 
	C742.728943,174.213882 744.683899,170.564285 743.103638,166.566330 
	C742.470764,164.965073 740.185120,163.986984 738.593445,162.803696 
	C737.151367,161.731674 735.630066,160.766327 734.143677,159.753937 
	C735.463196,158.808914 736.932068,158.013092 738.063660,156.880310 
	C739.420288,155.522308 741.308899,153.933640 741.419495,152.337585 
	C741.505859,151.090927 739.150879,148.540848 738.023254,148.619278 
	C736.465820,148.727676 734.952454,150.670380 733.588379,152.000046 
	C732.354614,153.202728 731.346619,154.637131 730.239136,155.969421 
	C729.439819,154.218399 727.890808,152.428619 727.978943,150.723480 
	C728.267273,145.146454 733.422668,141.901993 739.639648,142.917374 
	C745.392334,143.856918 748.890991,149.180405 747.073486,155.341492 
	C746.181091,158.366989 746.594055,160.356140 748.048157,163.054276 
	C750.483093,167.572327 750.280334,172.543884 746.854187,176.651825 
	C743.116577,181.133362 738.145203,181.760269 732.397949,179.871490 
z"/>
<path fill="#C6B9DF" opacity="1.000000" stroke="none" 
	d="
M585.043701,165.062424 
	C588.025757,162.904648 591.152527,161.345078 593.305359,158.920685 
	C594.946960,157.072021 596.096191,154.095947 595.995911,151.682449 
	C595.945923,150.480301 592.691895,148.704178 590.725464,148.452591 
	C587.683594,148.063400 585.556885,149.786652 584.639404,153.118668 
	C584.296997,154.362167 582.333496,155.159317 581.109192,156.160019 
	C580.475220,154.503510 579.055969,152.688309 579.352661,151.219849 
	C580.293335,146.564438 583.465271,143.751526 588.224487,142.954758 
	C594.021912,141.984161 598.818726,143.919983 601.148132,148.285156 
	C603.515137,152.720596 603.152771,157.171143 599.780212,160.796951 
	C597.325439,163.436111 594.070618,165.317978 591.263000,167.646591 
	C589.205139,169.353409 587.294250,171.237244 585.317810,173.042175 
	C585.537659,173.586700 585.757446,174.131226 585.977234,174.675751 
	C590.016724,174.675751 594.082886,174.410538 598.082153,174.811386 
	C599.598816,174.963425 600.961609,176.649857 602.394531,177.636917 
	C600.979736,178.460663 599.602112,179.907898 598.143433,179.994736 
	C593.169434,180.290802 588.163147,179.988892 583.176392,180.145203 
	C579.194824,180.270004 577.704285,178.103531 578.995728,174.878479 
	C580.364746,171.459396 582.799988,168.467270 585.043701,165.062424 
z"/>
<path fill="#C5B8DF" opacity="1.000000" stroke="none" 
	d="
M680.580200,167.660797 
	C684.365417,164.652527 688.274536,162.258972 691.323364,159.048492 
	C693.090393,157.187805 694.005798,154.049927 694.189697,151.409149 
	C694.253784,150.488525 691.054810,148.657349 689.203613,148.436722 
	C685.907837,148.043961 683.685913,149.738022 682.825928,153.353226 
	C682.551392,154.507248 680.410461,155.217255 679.123474,156.130432 
	C678.536194,154.593842 677.244934,152.933105 677.489990,151.543274 
	C678.318359,146.845444 681.399597,143.946579 686.111023,143.003494 
	C691.820190,141.860687 696.760254,143.724731 699.189209,147.993423 
	C701.669312,152.352066 701.482727,156.812485 698.194031,160.533981 
	C695.922729,163.104080 692.826965,164.936798 690.150452,167.160248 
	C687.930298,169.004547 685.784424,170.938263 683.605652,172.832367 
	C683.774902,173.443787 683.944153,174.055222 684.113342,174.666641 
	C687.931152,174.666641 691.778381,174.389053 695.553528,174.789978 
	C697.301880,174.975632 698.909851,176.483429 700.581421,177.391815 
	C698.925049,178.299179 697.324158,179.837921 695.601318,179.989487 
	C691.308716,180.367111 686.960449,180.135193 682.634827,180.107819 
	C677.046814,180.072449 675.724609,178.380936 677.489380,173.135559 
	C678.110168,171.290100 679.373352,169.660751 680.580200,167.660797 
z"/>
<path fill="#C3B7DD" opacity="1.000000" stroke="none" 
	d="
M383.062805,146.048935 
	C381.643097,147.276764 380.309875,148.605148 378.779144,148.896820 
	C376.532379,149.324966 374.144348,149.009079 371.816528,149.015045 
	C366.384308,149.028961 364.343353,151.901001 366.191254,157.144730 
	C366.448456,157.874634 367.421478,158.573456 368.212646,158.835648 
	C369.115387,159.134827 370.259430,158.697662 371.168304,158.988144 
	C373.437988,159.713623 377.576202,160.765366 377.539215,161.517868 
	C377.324615,165.885193 373.449829,164.442856 371.000366,164.306320 
	C366.934235,164.079666 365.897034,165.640671 365.955566,169.478973 
	C366.011139,173.121719 366.619385,175.187225 370.887634,174.719360 
	C373.842560,174.395493 376.893585,174.461700 379.843628,174.824783 
	C380.984711,174.965240 381.965851,176.405258 383.019836,177.253235 
	C381.915588,178.202469 380.855377,179.903763 379.699554,179.971390 
	C374.562622,180.271912 369.398315,180.105484 364.243927,180.105865 
	C361.253448,180.106094 360.154480,178.392487 360.157471,175.635803 
	C360.167603,166.324493 360.023590,157.009003 360.304047,147.706116 
	C360.349518,146.196899 362.166107,143.548004 363.310303,143.465988 
	C369.089600,143.051697 374.920654,143.222107 380.724060,143.440079 
	C381.529999,143.470337 382.283264,144.902664 383.062805,146.048935 
z"/>
<path fill="#BEB2D8" opacity="1.000000" stroke="none" 
	d="
M468.987610,166.982025 
	C468.987610,160.887222 468.987610,155.288452 468.987610,149.419067 
	C466.654633,149.209412 464.791656,149.330536 463.146057,148.789917 
	C462.096497,148.445114 460.535461,146.936279 460.681305,146.275482 
	C460.936371,145.119843 462.286438,143.390961 463.251862,143.341217 
	C468.879272,143.051300 474.534363,143.040756 480.164551,143.289108 
	C481.243408,143.336700 482.252747,144.959793 483.294128,145.856064 
	C482.233704,146.900208 481.046295,148.940979 480.133636,148.824738 
	C474.711456,148.134094 474.722382,151.339371 474.805847,155.176285 
	C474.957428,162.145172 475.010284,169.126541 474.720612,176.086731 
	C474.656097,177.637070 473.002533,179.121307 472.080597,180.635971 
	C471.050446,179.072083 469.433502,177.615387 469.123810,175.919922 
	C468.625000,173.188782 468.988464,170.300156 468.987610,166.982025 
z"/>
<path fill="#AFA3C7" opacity="1.000000" stroke="none" 
	d="
M510.787872,174.613174 
	C512.493652,175.069107 514.324036,175.432663 515.156128,176.543793 
	C515.610291,177.150238 514.640320,179.258377 513.787231,180.226105 
	C513.356567,180.714706 510.887604,180.353424 510.827881,180.066574 
	C510.474976,178.372360 510.559174,176.587128 510.787872,174.613174 
z"/>
<path fill="#140B25" opacity="1.000000" stroke="none" 
	d="
M606.509338,65.540817 
	C619.224060,65.211639 626.471863,72.014427 626.267578,83.669823 
	C626.101562,93.142998 619.893982,100.055168 610.863464,100.822388 
	C601.034912,101.657417 593.459595,96.314026 591.640442,87.263214 
	C589.704773,77.632988 594.424866,68.969109 603.178040,66.153183 
	C604.119019,65.850449 605.130554,65.766808 606.509338,65.540817 
z"/>
<path fill="#150B25" opacity="1.000000" stroke="none" 
	d="
M446.018372,71.061081 
	C451.074158,77.871201 451.632202,84.898949 448.096954,92.047829 
	C445.082001,98.144585 439.701385,100.819946 433.004944,100.920128 
	C425.090454,101.038536 418.767853,96.848831 416.260254,89.887566 
	C413.548920,82.360733 415.794464,73.568245 421.601135,68.975014 
	C427.128479,64.602730 436.157684,64.119827 442.302063,67.955544 
	C443.558044,68.739586 444.621948,69.831322 446.018372,71.061081 
z"/>
<path fill="#1B122C" opacity="1.000000" stroke="none" 
	d="
M642.212280,148.698318 
	C643.334412,149.460434 644.719482,150.069290 644.738342,150.717911 
	C644.948730,157.950577 645.222961,165.209656 644.692871,172.403610 
	C644.617859,173.422256 640.318970,174.833649 638.033875,174.732590 
	C636.564514,174.667618 634.108093,172.256531 633.985962,170.744232 
	C633.505737,164.796844 633.374817,158.753815 633.895264,152.814758 
	C634.298218,148.217285 638.000671,147.789474 642.212280,148.698318 
z"/>
</svg>